<svg xmlns="http://www.w3.org/2000/svg" xmlns:xlink="http://www.w3.org/1999/xlink" width="74.402" height="97.624" version="1.1" xml:space="preserve" style="shape-rendering:geometricPrecision;text-rendering:geometricPrecision;image-rendering:optimizeQuality;fill-rule:evenodd;clip-rule:evenodd" viewBox="0 0 352 462"><defs><style type="text/css">.fil0,.fil1{fill:#fefefe}.fil2,.fil3{fill:#5ee045}</style></defs><g id="Capa_x0020_1"><metadata id="CorelCorpID_0Corel-Layer"/><path d="M269 97c26,-2 52,0 78,4 7,1 7,11 -3,9 -33,-6 -68,-7 -102,3 -34,11 -50,41 -48,77 3,51 -22,85 -55,115 -43,40 -48,92 -38,149 1,10 -9,10 -11,3 -43,-118 -37,-247 45,-360 35,-47 89,-41 134,0z" class="fil0"/><path d="M202 254c-16,73 -103,97 -165,113 -20,4 -30,-24 -9,-31 24,-7 58,-16 76,-35 6,-7 11,-14 13,-23 7,-24 -6,-42 -25,-55 -75,-51 -103,-121 -88,-209 3,-17 26,-19 32,-2 14,41 48,60 86,77 71,32 97,89 80,165z" class="fil1"/><path d="M193 252c-14,61 -82,87 -159,105 -7,2 -12,-9 -3,-11 41,-14 84,-24 96,-65 7,-28 -6,-50 -30,-66 -77,-53 -96,-122 -83,-200 1,-6 10,-8 12,0 15,44 52,65 92,83 66,30 91,81 75,154z" class="fil2"/><path d="M162 352c18,-3 27,-12 29,-29 2,-18 30,-17 30,0 1,21 13,28 29,29 19,0 18,29 0,30 -18,1 -27,12 -29,29 -2,19 -30,18 -30,0 0,-18 -9,-30 -29,-29 -15,1 -17,-28 0,-30z" class="fil3"/><path d="M249 298c18,-3 28,-12 29,-29 2,-18 30,-17 31,0 0,22 12,29 28,29 20,1 18,29 0,30 -18,2 -27,12 -28,29 -2,19 -31,19 -31,0 0,-18 -9,-30 -29,-29 -15,1 -17,-27 0,-30z" class="fil0"/></g></svg>